<svg width="91" height="84" viewBox="0 0 91 84" fill="none" xmlns="http://www.w3.org/2000/svg">
    <path d="M18.0668 79.2727V79.8409H16.3836V79.2727H18.0668ZM16.7689 82V79.0756C16.7689 78.878 16.8073 78.714 16.8843 78.5838C16.9624 78.4536 17.0689 78.3559 17.2039 78.2908C17.3388 78.2257 17.4921 78.1932 17.6638 78.1932C17.7798 78.1932 17.8857 78.2021 17.9816 78.2198C18.0786 78.2376 18.1508 78.2536 18.1982 78.2678L18.0633 78.8359C18.0337 78.8265 17.997 78.8176 17.9532 78.8093C17.9106 78.801 17.8668 78.7969 17.8218 78.7969C17.7105 78.7969 17.633 78.8229 17.5892 78.875C17.5454 78.9259 17.5235 78.9975 17.5235 79.0898V82H16.7689ZM20.2778 80.8388V79.2727H21.0342V82H20.308V81.5046H20.2796C20.2181 81.6644 20.1157 81.7929 19.9724 81.8899C19.8304 81.987 19.657 82.0355 19.4522 82.0355C19.2699 82.0355 19.1095 81.9941 18.971 81.9112C18.8325 81.8284 18.7242 81.7106 18.6461 81.5579C18.5691 81.4052 18.5301 81.2223 18.5289 81.0092V79.2727H19.2853V80.8743C19.2865 81.0353 19.3297 81.1625 19.4149 81.256C19.5001 81.3496 19.6144 81.3963 19.7576 81.3963C19.8487 81.3963 19.934 81.3756 20.0133 81.3342C20.0926 81.2915 20.1565 81.2288 20.205 81.146C20.2547 81.0631 20.279 80.9607 20.2778 80.8388ZM21.6392 82V79.2727H22.3601V79.7539H22.3921C22.4489 79.5941 22.5436 79.468 22.6762 79.3757C22.8088 79.2834 22.9674 79.2372 23.152 79.2372C23.3391 79.2372 23.4983 79.284 23.6297 79.3775C23.7611 79.4698 23.8486 79.5953 23.8924 79.7539H23.9209C23.9765 79.5977 24.0771 79.4728 24.2227 79.3793C24.3695 79.2846 24.5429 79.2372 24.7429 79.2372C24.9974 79.2372 25.204 79.3183 25.3626 79.4805C25.5224 79.6415 25.6023 79.8699 25.6023 80.1658V82H24.8477V80.315C24.8477 80.1635 24.8075 80.0498 24.727 79.9741C24.6465 79.8983 24.5459 79.8604 24.4251 79.8604C24.2878 79.8604 24.1807 79.9042 24.1037 79.9918C24.0268 80.0782 23.9883 80.1925 23.9883 80.3345V82H23.255V80.299C23.255 80.1652 23.2165 80.0587 23.1396 79.9794C23.0638 79.9001 22.9638 79.8604 22.8395 79.8604C22.7555 79.8604 22.6797 79.8817 22.6123 79.9244C22.546 79.9658 22.4933 80.0244 22.4542 80.1001C22.4152 80.1747 22.3956 80.2623 22.3956 80.3629V82H21.6392ZM27.4427 82.0533C27.1622 82.0533 26.9207 81.9964 26.7183 81.8828C26.517 81.768 26.362 81.6058 26.2531 81.3963C26.1442 81.1856 26.0897 80.9364 26.0897 80.6488C26.0897 80.3683 26.1442 80.122 26.2531 79.9102C26.362 79.6983 26.5153 79.5331 26.7129 79.4148C26.9118 79.2964 27.145 79.2372 27.4125 79.2372C27.5924 79.2372 27.7599 79.2662 27.915 79.3242C28.0712 79.381 28.2074 79.4669 28.3234 79.5817C28.4406 79.6965 28.5317 79.8409 28.5968 80.0149C28.6619 80.1877 28.6945 80.3902 28.6945 80.6222V80.8299H26.3916V80.3612H27.9825C27.9825 80.2522 27.9588 80.1558 27.9114 80.0717C27.8641 79.9877 27.7984 79.922 27.7144 79.8746C27.6315 79.8261 27.535 79.8018 27.4249 79.8018C27.3101 79.8018 27.2083 79.8285 27.1195 79.8817C27.0319 79.9338 26.9633 80.0043 26.9136 80.093C26.8639 80.1806 26.8384 80.2783 26.8372 80.386V80.8317C26.8372 80.9666 26.8621 81.0832 26.9118 81.1815C26.9627 81.2797 27.0343 81.3555 27.1266 81.4087C27.219 81.462 27.3285 81.4886 27.4551 81.4886C27.5392 81.4886 27.6161 81.4768 27.6859 81.4531C27.7558 81.4295 27.8156 81.3939 27.8653 81.3466C27.915 81.2992 27.9529 81.2412 27.9789 81.1726L28.6785 81.2188C28.643 81.3868 28.5702 81.5336 28.4601 81.6591C28.3512 81.7834 28.2103 81.8804 28.0375 81.9503C27.8659 82.0189 27.6676 82.0533 27.4427 82.0533ZM30.6387 79.2727V79.8409H28.9963V79.2727H30.6387ZM29.3692 78.6193H30.1256V81.1619C30.1256 81.2318 30.1362 81.2862 30.1575 81.3253C30.1788 81.3632 30.2084 81.3898 30.2463 81.4052C30.2854 81.4206 30.3304 81.4283 30.3813 81.4283C30.4168 81.4283 30.4523 81.4253 30.4878 81.4194C30.5233 81.4123 30.5505 81.407 30.5695 81.4034L30.6884 81.9663C30.6506 81.9781 30.5973 81.9917 30.5286 82.0071C30.46 82.0237 30.3765 82.0337 30.2783 82.0373C30.096 82.0444 29.9362 82.0201 29.7989 81.9645C29.6627 81.9089 29.5568 81.8224 29.481 81.7053C29.4053 81.5881 29.368 81.4401 29.3692 81.2614V78.6193ZM32.5821 79.2727V79.8409H30.9397V79.2727H32.5821ZM31.3125 78.6193H32.0689V81.1619C32.0689 81.2318 32.0796 81.2862 32.1009 81.3253C32.1222 81.3632 32.1518 81.3898 32.1897 81.4052C32.2287 81.4206 32.2737 81.4283 32.3246 81.4283C32.3601 81.4283 32.3956 81.4253 32.4312 81.4194C32.4667 81.4123 32.4939 81.407 32.5128 81.4034L32.6318 81.9663C32.5939 81.9781 32.5406 81.9917 32.472 82.0071C32.4033 82.0237 32.3199 82.0337 32.2216 82.0373C32.0393 82.0444 31.8795 82.0201 31.7422 81.9645C31.6061 81.9089 31.5002 81.8224 31.4244 81.7053C31.3486 81.5881 31.3114 81.4401 31.3125 81.2614V78.6193ZM34.2884 82.0533C34.0079 82.0533 33.7664 81.9964 33.564 81.8828C33.3627 81.768 33.2077 81.6058 33.0988 81.3963C32.9899 81.1856 32.9354 80.9364 32.9354 80.6488C32.9354 80.3683 32.9899 80.122 33.0988 79.9102C33.2077 79.6983 33.361 79.5331 33.5586 79.4148C33.7575 79.2964 33.9907 79.2372 34.2582 79.2372C34.4381 79.2372 34.6056 79.2662 34.7607 79.3242C34.9169 79.381 35.0531 79.4669 35.1691 79.5817C35.2863 79.6965 35.3774 79.8409 35.4425 80.0149C35.5076 80.1877 35.5402 80.3902 35.5402 80.6222V80.8299H33.2373V80.3612H34.8282C34.8282 80.2522 34.8045 80.1558 34.7571 80.0717C34.7098 79.9877 34.6441 79.922 34.5601 79.8746C34.4772 79.8261 34.3807 79.8018 34.2706 79.8018C34.1558 79.8018 34.054 79.8285 33.9652 79.8817C33.8776 79.9338 33.809 80.0043 33.7593 80.093C33.7096 80.1806 33.6841 80.2783 33.6829 80.386V80.8317C33.6829 80.9666 33.7078 81.0832 33.7575 81.1815C33.8084 81.2797 33.88 81.3555 33.9723 81.4087C34.0647 81.462 34.1742 81.4886 34.3008 81.4886C34.3849 81.4886 34.4618 81.4768 34.5316 81.4531C34.6015 81.4295 34.6613 81.3939 34.711 81.3466C34.7607 81.2992 34.7986 81.2412 34.8246 81.1726L35.5242 81.2188C35.4887 81.3868 35.4159 81.5336 35.3058 81.6591C35.1969 81.7834 35.056 81.8804 34.8832 81.9503C34.7116 82.0189 34.5133 82.0533 34.2884 82.0533ZM37.9687 82.0515C37.7947 82.0515 37.6396 82.0213 37.5035 81.9609C37.3674 81.8994 37.2597 81.8088 37.1804 81.6893C37.1022 81.5685 37.0632 81.4182 37.0632 81.2383C37.0632 81.0868 37.091 80.9595 37.1466 80.8565C37.2023 80.7536 37.278 80.6707 37.3739 80.608C37.4698 80.5452 37.5787 80.4979 37.7006 80.4659C37.8237 80.4339 37.9527 80.4115 38.0877 80.3984C38.2463 80.3819 38.3741 80.3665 38.4712 80.3523C38.5683 80.3369 38.6387 80.3144 38.6825 80.2848C38.7263 80.2552 38.7482 80.2114 38.7482 80.1534V80.1428C38.7482 80.0303 38.7127 79.9433 38.6416 79.8817C38.5718 79.8202 38.4724 79.7894 38.3434 79.7894C38.2072 79.7894 38.0989 79.8196 38.0184 79.88C37.9379 79.9392 37.8847 80.0137 37.8586 80.1037L37.159 80.0469C37.1946 79.8812 37.2644 79.7379 37.3686 79.6172C37.4727 79.4953 37.6071 79.4018 37.7716 79.3366C37.9373 79.2704 38.1291 79.2372 38.3469 79.2372C38.4984 79.2372 38.6434 79.255 38.7819 79.2905C38.9216 79.326 39.0453 79.381 39.153 79.4556C39.2619 79.5302 39.3477 79.6261 39.4105 79.7433C39.4732 79.8593 39.5046 79.9983 39.5046 80.1605V82H38.7872V81.6218H38.7659C38.7221 81.707 38.6635 81.7822 38.5902 81.8473C38.5168 81.9112 38.4286 81.9615 38.3256 81.9982C38.2226 82.0337 38.1036 82.0515 37.9687 82.0515ZM38.1853 81.5295C38.2966 81.5295 38.3948 81.5076 38.4801 81.4638C38.5653 81.4188 38.6322 81.3584 38.6807 81.2827C38.7292 81.2069 38.7535 81.1211 38.7535 81.0252V80.7358C38.7298 80.7512 38.6973 80.7654 38.6559 80.7784C38.6156 80.7902 38.57 80.8015 38.5191 80.8121C38.4682 80.8216 38.4173 80.8305 38.3664 80.8388C38.3155 80.8459 38.2694 80.8524 38.2279 80.8583C38.1392 80.8713 38.0616 80.892 37.9953 80.9205C37.9291 80.9489 37.8776 80.9873 37.8409 81.0359C37.8042 81.0832 37.7858 81.1424 37.7858 81.2134C37.7858 81.3164 37.8231 81.3951 37.8977 81.4496C37.9734 81.5028 38.0693 81.5295 38.1853 81.5295ZM38.1125 78.9212L37.571 78.1133H38.2688L38.647 78.9212H38.1125ZM42.6993 79.2727V79.8409H41.0569V79.2727H42.6993ZM41.4297 78.6193H42.1861V81.1619C42.1861 81.2318 42.1968 81.2862 42.2181 81.3253C42.2394 81.3632 42.269 81.3898 42.3069 81.4052C42.3459 81.4206 42.3909 81.4283 42.4418 81.4283C42.4773 81.4283 42.5128 81.4253 42.5483 81.4194C42.5839 81.4123 42.6111 81.407 42.63 81.4034L42.749 81.9663C42.7111 81.9781 42.6578 81.9917 42.5892 82.0071C42.5205 82.0237 42.4371 82.0337 42.3388 82.0373C42.1565 82.0444 41.9967 82.0201 41.8594 81.9645C41.7233 81.9089 41.6174 81.8224 41.5416 81.7053C41.4658 81.5881 41.4285 81.4401 41.4297 81.2614V78.6193ZM44.3949 82.0533C44.1191 82.0533 43.8806 81.9947 43.6794 81.8775C43.4793 81.7591 43.3249 81.5946 43.216 81.3839C43.1071 81.172 43.0526 80.9264 43.0526 80.647C43.0526 80.3653 43.1071 80.1191 43.216 79.9084C43.3249 79.6965 43.4793 79.532 43.6794 79.4148C43.8806 79.2964 44.1191 79.2372 44.3949 79.2372C44.6707 79.2372 44.9087 79.2964 45.1087 79.4148C45.3099 79.532 45.465 79.6965 45.5739 79.9084C45.6828 80.1191 45.7373 80.3653 45.7373 80.647C45.7373 80.9264 45.6828 81.172 45.5739 81.3839C45.465 81.5946 45.3099 81.7591 45.1087 81.8775C44.9087 81.9947 44.6707 82.0533 44.3949 82.0533ZM44.3985 81.4673C44.524 81.4673 44.6287 81.4318 44.7128 81.3608C44.7968 81.2886 44.8601 81.1903 44.9027 81.0661C44.9465 80.9418 44.9684 80.8003 44.9684 80.6417C44.9684 80.4831 44.9465 80.3416 44.9027 80.2173C44.8601 80.093 44.7968 79.9948 44.7128 79.9226C44.6287 79.8504 44.524 79.8143 44.3985 79.8143C44.2718 79.8143 44.1653 79.8504 44.0789 79.9226C43.9937 79.9948 43.9291 80.093 43.8853 80.2173C43.8427 80.3416 43.8214 80.4831 43.8214 80.6417C43.8214 80.8003 43.8427 80.9418 43.8853 81.0661C43.9291 81.1903 43.9937 81.2886 44.0789 81.3608C44.1653 81.4318 44.2718 81.4673 44.3985 81.4673ZM47.978 80.8388V79.2727H48.7344V82H48.0082V81.5046H47.9798C47.9182 81.6644 47.8159 81.7929 47.6726 81.8899C47.5306 81.987 47.3572 82.0355 47.1524 82.0355C46.9701 82.0355 46.8097 81.9941 46.6712 81.9112C46.5327 81.8284 46.4244 81.7106 46.3463 81.5579C46.2693 81.4052 46.2303 81.2223 46.2291 81.0092V79.2727H46.9855V80.8743C46.9867 81.0353 47.0299 81.1625 47.1151 81.256C47.2003 81.3496 47.3146 81.3963 47.4578 81.3963C47.5489 81.3963 47.6342 81.3756 47.7135 81.3342C47.7928 81.2915 47.8567 81.2288 47.9052 81.146C47.9549 81.0631 47.9792 80.9607 47.978 80.8388ZM50.7901 79.2727V79.8409H49.1477V79.2727H50.7901ZM49.5206 78.6193H50.2769V81.1619C50.2769 81.2318 50.2876 81.2862 50.3089 81.3253C50.3302 81.3632 50.3598 81.3898 50.3977 81.4052C50.4367 81.4206 50.4817 81.4283 50.5326 81.4283C50.5681 81.4283 50.6036 81.4253 50.6392 81.4194C50.6747 81.4123 50.7019 81.407 50.7208 81.4034L50.8398 81.9663C50.8019 81.9781 50.7487 81.9917 50.68 82.0071C50.6113 82.0237 50.5279 82.0337 50.4296 82.0373C50.2474 82.0444 50.0876 82.0201 49.9502 81.9645C49.8141 81.9089 49.7082 81.8224 49.6324 81.7053C49.5567 81.5881 49.5194 81.4401 49.5206 81.2614V78.6193ZM52.4542 82V78.3636H53.2106V79.7308H53.2337C53.2669 79.6574 53.3148 79.5829 53.3775 79.5071C53.4415 79.4302 53.5243 79.3662 53.6261 79.3153C53.7291 79.2633 53.8569 79.2372 54.0096 79.2372C54.2085 79.2372 54.392 79.2893 54.5601 79.3935C54.7281 79.4964 54.8625 79.6521 54.9631 79.8604C55.0637 80.0676 55.114 80.3274 55.114 80.6399C55.114 80.9441 55.0649 81.201 54.9667 81.4105C54.8696 81.6188 54.737 81.7769 54.5689 81.8846C54.402 81.9911 54.215 82.0444 54.0079 82.0444C53.8611 82.0444 53.7362 82.0201 53.6332 81.9716C53.5314 81.9231 53.448 81.8621 53.3829 81.7887C53.3178 81.7141 53.268 81.639 53.2337 81.5632H53.2V82H52.4542ZM53.1946 80.6364C53.1946 80.7985 53.2171 80.94 53.2621 81.0607C53.3071 81.1815 53.3722 81.2756 53.4574 81.343C53.5427 81.4093 53.6462 81.4425 53.7682 81.4425C53.8913 81.4425 53.9954 81.4087 54.0807 81.3413C54.1659 81.2726 54.2304 81.1779 54.2742 81.0572C54.3192 80.9353 54.3417 80.795 54.3417 80.6364C54.3417 80.4789 54.3198 80.3404 54.276 80.2209C54.2322 80.1013 54.1677 80.0078 54.0824 79.9403C53.9972 79.8729 53.8924 79.8391 53.7682 79.8391C53.645 79.8391 53.5409 79.8717 53.4557 79.9368C53.3716 80.0019 53.3071 80.0942 53.2621 80.2138C53.2171 80.3333 53.1946 80.4742 53.1946 80.6364ZM57.3677 80.8388V79.2727H58.1241V82H57.3979V81.5046H57.3695C57.3079 81.6644 57.2055 81.7929 57.0623 81.8899C56.9202 81.987 56.7468 82.0355 56.542 82.0355C56.3597 82.0355 56.1994 81.9941 56.0609 81.9112C55.9224 81.8284 55.8141 81.7106 55.7359 81.5579C55.659 81.4052 55.6199 81.2223 55.6187 81.0092V79.2727H56.3751V80.8743C56.3763 81.0353 56.4195 81.1625 56.5047 81.256C56.59 81.3496 56.7042 81.3963 56.8474 81.3963C56.9386 81.3963 57.0238 81.3756 57.1031 81.3342C57.1824 81.2915 57.2463 81.2288 57.2949 81.146C57.3446 81.0631 57.3689 80.9607 57.3677 80.8388ZM59.7341 82.0444C59.5269 82.0444 59.3393 81.9911 59.1712 81.8846C59.0043 81.7769 58.8717 81.6188 58.7735 81.4105C58.6764 81.201 58.6279 80.9441 58.6279 80.6399C58.6279 80.3274 58.6782 80.0676 58.7788 79.8604C58.8794 79.6521 59.0132 79.4964 59.1801 79.3935C59.3482 79.2893 59.5322 79.2372 59.7323 79.2372C59.885 79.2372 60.0122 79.2633 60.114 79.3153C60.217 79.3662 60.2999 79.4302 60.3626 79.5071C60.4265 79.5829 60.4751 79.6574 60.5082 79.7308H60.5313V78.3636H61.2859V82H60.5402V81.5632H60.5082C60.4727 81.639 60.4224 81.7141 60.3573 81.7887C60.2934 81.8621 60.2099 81.9231 60.1069 81.9716C60.0051 82.0201 59.8808 82.0444 59.7341 82.0444ZM59.9738 81.4425C60.0957 81.4425 60.1987 81.4093 60.2827 81.343C60.3679 81.2756 60.433 81.1815 60.478 81.0607C60.5242 80.94 60.5473 80.7985 60.5473 80.6364C60.5473 80.4742 60.5248 80.3333 60.4798 80.2138C60.4348 80.0942 60.3697 80.0019 60.2845 79.9368C60.1993 79.8717 60.0957 79.8391 59.9738 79.8391C59.8495 79.8391 59.7447 79.8729 59.6595 79.9403C59.5743 80.0078 59.5098 80.1013 59.466 80.2209C59.4222 80.3404 59.4003 80.4789 59.4003 80.6364C59.4003 80.795 59.4222 80.9353 59.466 81.0572C59.5109 81.1779 59.5754 81.2726 59.6595 81.3413C59.7447 81.4087 59.8495 81.4425 59.9738 81.4425ZM63.1365 83.0795C62.8915 83.0795 62.6814 83.0458 62.5062 82.9783C62.3322 82.9121 62.1937 82.8215 62.0907 82.7067C61.9877 82.5919 61.9208 82.4628 61.89 82.3196L62.5896 82.2255C62.6109 82.2799 62.6447 82.3308 62.6908 82.3782C62.737 82.4255 62.798 82.4634 62.8737 82.4918C62.9507 82.5214 63.0442 82.5362 63.1543 82.5362C63.3188 82.5362 63.4543 82.496 63.5609 82.4155C63.6686 82.3362 63.7224 82.203 63.7224 82.016V81.517H63.6905C63.6573 81.5928 63.6076 81.6644 63.5413 81.7319C63.475 81.7994 63.3898 81.8544 63.2856 81.897C63.1815 81.9396 63.0572 81.9609 62.9128 81.9609C62.708 81.9609 62.5216 81.9136 62.3535 81.8189C62.1866 81.723 62.0534 81.5768 61.954 81.3803C61.8557 81.1826 61.8066 80.9329 61.8066 80.631C61.8066 80.3221 61.8569 80.064 61.9575 79.8569C62.0581 79.6497 62.1919 79.4947 62.3588 79.3917C62.5269 79.2887 62.711 79.2372 62.911 79.2372C63.0637 79.2372 63.1915 79.2633 63.2945 79.3153C63.3975 79.3662 63.4804 79.4302 63.5431 79.5071C63.607 79.5829 63.6561 79.6574 63.6905 79.7308H63.7189V79.2727H64.4699V82.0266C64.4699 82.2586 64.4131 82.4528 64.2995 82.609C64.1859 82.7653 64.0284 82.8825 63.8272 82.9606C63.6271 83.0399 63.3969 83.0795 63.1365 83.0795ZM63.1525 81.3928C63.2744 81.3928 63.3774 81.3626 63.4614 81.3022C63.5467 81.2406 63.6118 81.1531 63.6567 81.0394C63.7029 80.9246 63.726 80.7873 63.726 80.6275C63.726 80.4677 63.7035 80.3292 63.6585 80.212C63.6135 80.0936 63.5484 80.0019 63.4632 79.9368C63.378 79.8717 63.2744 79.8391 63.1525 79.8391C63.0282 79.8391 62.9234 79.8729 62.8382 79.9403C62.753 80.0066 62.6885 80.099 62.6447 80.2173C62.6009 80.3357 62.579 80.4724 62.579 80.6275C62.579 80.7849 62.6009 80.921 62.6447 81.0359C62.6896 81.1495 62.7542 81.2377 62.8382 81.3004C62.9234 81.362 63.0282 81.3928 63.1525 81.3928ZM66.3148 82.0533C66.0342 82.0533 65.7927 81.9964 65.5903 81.8828C65.3891 81.768 65.234 81.6058 65.1251 81.3963C65.0162 81.1856 64.9618 80.9364 64.9618 80.6488C64.9618 80.3683 65.0162 80.122 65.1251 79.9102C65.234 79.6983 65.3873 79.5331 65.585 79.4148C65.7839 79.2964 66.0171 79.2372 66.2846 79.2372C66.4645 79.2372 66.632 79.2662 66.7871 79.3242C66.9433 79.381 67.0794 79.4669 67.1954 79.5817C67.3126 79.6965 67.4038 79.8409 67.4689 80.0149C67.534 80.1877 67.5665 80.3902 67.5665 80.6222V80.8299H65.2636V80.3612H66.8545C66.8545 80.2522 66.8309 80.1558 66.7835 80.0717C66.7362 79.9877 66.6705 79.922 66.5864 79.8746C66.5036 79.8261 66.4071 79.8018 66.297 79.8018C66.1822 79.8018 66.0804 79.8285 65.9916 79.8817C65.904 79.9338 65.8354 80.0043 65.7856 80.093C65.7359 80.1806 65.7105 80.2783 65.7093 80.386V80.8317C65.7093 80.9666 65.7342 81.0832 65.7839 81.1815C65.8348 81.2797 65.9064 81.3555 65.9987 81.4087C66.091 81.462 66.2005 81.4886 66.3272 81.4886C66.4112 81.4886 66.4882 81.4768 66.558 81.4531C66.6279 81.4295 66.6876 81.3939 66.7373 81.3466C66.7871 81.2992 66.8249 81.2412 66.851 81.1726L67.5506 81.2188C67.515 81.3868 67.4422 81.5336 67.3322 81.6591C67.2233 81.7834 67.0824 81.8804 66.9096 81.9503C66.7379 82.0189 66.5397 82.0533 66.3148 82.0533ZM69.5108 79.2727V79.8409H67.8684V79.2727H69.5108ZM68.2413 78.6193H68.9976V81.1619C68.9976 81.2318 69.0083 81.2862 69.0296 81.3253C69.0509 81.3632 69.0805 81.3898 69.1184 81.4052C69.1574 81.4206 69.2024 81.4283 69.2533 81.4283C69.2888 81.4283 69.3244 81.4253 69.3599 81.4194C69.3954 81.4123 69.4226 81.407 69.4415 81.4034L69.5605 81.9663C69.5226 81.9781 69.4694 81.9917 69.4007 82.0071C69.332 82.0237 69.2486 82.0337 69.1503 82.0373C68.9681 82.0444 68.8083 82.0201 68.6709 81.9645C68.5348 81.9089 68.4289 81.8224 68.3531 81.7053C68.2774 81.5881 68.2401 81.4401 68.2413 81.2614V78.6193Z" fill="#15292E"/>
    <path d="M0.262562 74V61.6364H5.1404C6.07814 61.6364 6.87703 61.8155 7.53707 62.1737C8.1971 62.5278 8.70018 63.0208 9.0463 63.6527C9.39644 64.2805 9.57151 65.005 9.57151 65.826C9.57151 66.647 9.39443 67.3714 9.04026 67.9993C8.6861 68.6271 8.17296 69.1161 7.50084 69.4663C6.83276 69.8164 6.02381 69.9915 5.074 69.9915H1.96498V67.8967H4.65141C5.15449 67.8967 5.56903 67.8101 5.89502 67.6371C6.22504 67.46 6.47054 67.2165 6.63153 66.9066C6.79653 66.5927 6.87904 66.2325 6.87904 65.826C6.87904 65.4155 6.79653 65.0573 6.63153 64.7514C6.47054 64.4415 6.22504 64.2021 5.89502 64.033C5.565 63.86 5.14644 63.7734 4.63934 63.7734H2.87655V74H0.262562ZM18.9061 61.6364H21.5201V69.6655C21.5201 70.567 21.3048 71.3558 20.8742 72.032C20.4475 72.7081 19.8499 73.2353 19.0812 73.6136C18.3125 73.9879 17.417 74.1751 16.3948 74.1751C15.3685 74.1751 14.471 73.9879 13.7023 73.6136C12.9336 73.2353 12.3359 72.7081 11.9093 72.032C11.4827 71.3558 11.2694 70.567 11.2694 69.6655V61.6364H13.8834V69.4421C13.8834 69.913 13.986 70.3316 14.1913 70.6978C14.4006 71.064 14.6944 71.3518 15.0727 71.5611C15.451 71.7704 15.8917 71.875 16.3948 71.875C16.9019 71.875 17.3426 71.7704 17.7168 71.5611C18.0952 71.3518 18.3869 71.064 18.5922 70.6978C18.8015 70.3316 18.9061 69.913 18.9061 69.4421V61.6364ZM23.6708 74V61.6364H28.5486C29.4823 61.6364 30.2792 61.8034 30.9392 62.1374C31.6033 62.4674 32.1084 62.9363 32.4545 63.544C32.8046 64.1477 32.9797 64.8581 32.9797 65.6751C32.9797 66.4961 32.8026 67.2024 32.4485 67.794C32.0943 68.3816 31.5812 68.8324 30.909 69.1463C30.241 69.4602 29.432 69.6172 28.4822 69.6172H25.2162V67.5163H28.0596C28.5587 67.5163 28.9732 67.4479 29.3032 67.3111C29.6332 67.1742 29.8787 66.969 30.0397 66.6953C30.2047 66.4216 30.2872 66.0816 30.2872 65.6751C30.2872 65.2646 30.2047 64.9184 30.0397 64.6367C29.8787 64.355 29.6312 64.1417 29.2972 63.9968C28.9672 63.8479 28.5506 63.7734 28.0475 63.7734H26.2848V74H23.6708ZM30.3476 68.3736L33.4204 74H30.5348L27.5284 68.3736H30.3476ZM34.827 74V61.6364H43.158V63.7915H37.441V66.7376H42.7294V68.8928H37.441V71.8448H43.1821V74H34.827ZM49.1708 74V61.6364H51.7848V71.8448H57.0852V74H49.1708ZM58.8163 74V61.6364H67.1472V63.7915H61.4303V66.7376H66.7186V68.8928H61.4303V71.8448H67.1714V74H58.8163ZM71.3565 74H68.5554L72.8235 61.6364H76.1921L80.4541 74H77.653L74.5561 64.4616H74.4595L71.3565 74ZM71.1814 69.1403H77.7979V71.1808H71.1814V69.1403ZM81.9422 74V61.6364H90.1283V63.7915H84.5562V66.7376H89.585V68.8928H84.5562V74H81.9422Z" fill="#031114"/>
    <path d="M36 50.5C30.1667 51.6667 17.6 52.7 14 47.5C17.5 44.5 28.3 40.4 43.5 48C47.6667 50.8334 58.9 54.8001 70.5 48C70.5 47.3334 69.3 45.7 64.5 44.5" stroke="#245448" stroke-width="4" stroke-linecap="round"/>
    <path d="M44 48C42.1667 40.4727 34 24.5345 16 21C16 23.4545 17.9 30.2291 25.5 37.6909" stroke="#245448" stroke-width="4" stroke-linecap="round"/>
    <path d="M44 48C48.3333 42.5 54.4 26 44 4C42.1667 5.5 38.2 12.1 37 26.5" stroke="#245448" stroke-width="4" stroke-linecap="round"/>
    <path d="M45 48.5C51.5 47.1667 65.8 39.8 71 21C68.8333 21 62.7 22.5 55.5 28.5" stroke="#245448" stroke-width="4" stroke-linecap="round"/>
</svg>
